<svg width="921" height="200" viewBox="0 0 921 200" fill="none" xmlns="http://www.w3.org/2000/svg">
<path d="M59.3105 58.7588C69.9773 58.7588 79.3572 61.3339 87.4492 66.4834C93.6232 70.325 98.3119 75.0375 101.518 80.6191V80.2764C101.518 73.4719 103.357 68.3224 107.035 64.8281C110.713 61.15 115.771 59.3105 122.208 59.3105C128.828 59.3106 133.886 61.1502 137.38 64.8281C141.058 68.3224 142.897 73.4719 142.897 80.2764V178.208C142.897 185.013 141.058 190.254 137.38 193.933C133.886 197.611 128.829 199.45 122.208 199.45C115.587 199.45 110.438 197.611 106.76 193.933C103.265 190.254 101.518 185.013 101.518 178.208V177.699C98.4783 183.337 93.9746 188.106 88.001 192.002C79.7251 197.335 70.1612 200.002 59.3105 200.002C47.5404 200.002 37.1492 197.151 28.1377 191.45C19.3102 185.749 12.4138 177.565 7.44824 166.898C2.48269 156.232 0 143.633 0 129.104C1.65324e-05 114.576 2.4827 102.07 7.44824 91.5869C12.4137 81.1043 19.3103 73.0127 28.1377 67.3115C37.1492 61.6104 47.5404 58.7588 59.3105 58.7588ZM369.68 58.7588C380.346 58.7588 389.725 61.334 397.817 66.4834C403.992 70.3251 408.681 75.0373 411.887 80.6191V80.2764C411.887 73.4719 413.726 68.3224 417.404 64.8281C421.082 61.1502 426.14 59.3106 432.576 59.3105C439.197 59.3105 444.255 61.15 447.749 64.8281C451.427 68.3224 453.267 73.4719 453.267 80.2764V178.208C453.267 185.013 451.427 190.254 447.749 193.933C444.255 197.611 439.197 199.45 432.576 199.45C425.956 199.45 420.806 197.611 417.128 193.933C413.634 190.254 411.887 185.013 411.887 178.208V177.699C408.847 183.337 404.343 188.106 398.369 192.002C390.093 197.335 380.53 200.002 369.68 200.002C357.91 200.002 347.518 197.151 338.507 191.45C329.679 185.749 322.783 177.565 317.817 166.898C312.852 156.232 310.369 143.633 310.369 129.104C310.369 114.576 312.852 102.07 317.817 91.5869C322.783 81.1043 329.679 73.0127 338.507 67.3115C347.518 61.6103 357.909 58.7588 369.68 58.7588ZM495.295 0C501.915 5.6715e-05 506.973 1.83954 510.467 5.51758C514.145 9.01186 515.984 14.2536 515.984 21.2422V79.6934C519.168 74.5148 523.672 70.1107 529.502 66.4834C537.778 61.334 547.249 58.7598 557.916 58.7598C569.87 58.7598 580.261 61.6104 589.089 67.3115C597.916 73.0127 604.813 81.1043 609.778 91.5869C614.744 102.07 617.227 114.576 617.227 129.104C617.227 143.633 614.744 156.232 609.778 166.898C604.813 177.565 597.824 185.749 588.812 191.45C579.985 197.151 569.686 200.002 557.916 200.002C547.065 200.002 537.41 197.335 528.95 192.002C523.034 188.058 518.529 183.221 515.433 177.491V178.208C515.433 185.013 513.686 190.254 510.191 193.933C506.697 197.611 501.639 199.45 495.019 199.45C488.398 199.45 483.248 197.611 479.57 193.933C476.076 190.254 474.329 185.013 474.329 178.208V21.2422C474.329 14.2537 476.076 9.01186 479.57 5.51758C483.249 1.83938 488.49 0 495.295 0ZM696.772 58.7588C711.301 58.7588 723.899 61.6104 734.565 67.3115C745.416 73.0127 753.785 81.1041 759.67 91.5869C765.739 102.07 768.772 114.576 768.772 129.104C768.772 140.139 767.026 149.978 763.531 158.622C760.221 167.266 755.439 174.714 749.187 180.967C742.934 187.22 735.302 192.002 726.29 195.312C717.462 198.439 707.623 200.002 696.772 200.002C682.244 200.002 669.554 197.151 658.703 191.45C648.036 185.749 639.76 177.565 633.875 166.898C627.99 156.232 625.048 143.633 625.048 129.104C625.048 118.254 626.703 108.507 630.014 99.8633C633.324 91.2195 638.105 83.863 644.358 77.7939C650.795 71.5411 658.427 66.8511 667.255 63.7246C676.083 60.4142 685.922 58.7588 696.772 58.7588ZM848.186 58.7588C862.714 58.7588 875.312 61.6104 885.979 67.3115C896.829 73.0127 905.197 81.1042 911.082 91.5869C917.151 102.07 920.186 114.576 920.186 129.104C920.186 140.139 918.439 149.978 914.944 158.622C911.634 167.266 906.852 174.714 900.6 180.967C894.347 187.22 886.714 192.002 877.702 195.312C868.875 198.439 859.036 200.002 848.186 200.002C833.657 200.002 820.967 197.151 810.116 191.45C799.45 185.749 791.173 177.565 785.288 166.898C779.403 156.232 776.461 143.633 776.461 129.104C776.461 118.254 778.116 108.507 781.426 99.8633C784.736 91.2197 789.518 83.8629 795.771 77.7939C802.207 71.541 809.84 66.8511 818.668 63.7246C827.496 60.4143 837.335 58.7588 848.186 58.7588ZM249.202 58.7588C260.053 58.7588 268.972 60.8746 275.961 65.1045C282.949 69.1505 288.191 75.4035 291.686 83.8633C295.18 92.1391 296.927 102.714 296.927 115.587V178.208C296.927 185.013 295.087 190.254 291.409 193.933C287.915 197.611 282.766 199.45 275.961 199.45C269.34 199.45 264.191 197.611 260.513 193.933C257.018 190.254 255.271 185.013 255.271 178.208V117.519C255.271 108.139 253.525 101.426 250.03 97.3799C246.72 93.15 241.57 91.0352 234.581 91.0352C225.754 91.0352 218.673 93.7943 213.34 99.3115C208.19 104.829 205.616 112.185 205.616 121.381V178.208C205.616 192.369 198.719 199.45 184.926 199.45C178.121 199.45 172.88 197.611 169.202 193.933C165.708 190.254 163.96 185.013 163.96 178.208V80.2764C163.96 73.4719 165.708 68.3224 169.202 64.8281C172.88 61.1502 177.937 59.3106 184.374 59.3105C190.995 59.3105 196.053 61.1499 199.547 64.8281C203.041 68.3224 204.788 73.4719 204.788 80.2764V81.3389C208.788 74.9974 214.03 69.9538 220.513 66.208C228.972 61.2425 238.535 58.7588 249.202 58.7588ZM71.7246 89.9316C65.8395 89.9316 60.5977 91.3117 56 94.0703C51.5865 96.8289 48.0922 101.15 45.5176 107.035C43.1268 112.736 41.9317 120.093 41.9316 129.104C41.9316 142.53 44.6898 152.553 50.207 159.174C55.7243 165.611 62.897 168.829 71.7246 168.829C77.7936 168.829 83.0354 167.358 87.4492 164.415C91.8629 161.472 95.357 157.15 97.9316 151.449C100.506 145.564 101.794 138.116 101.794 129.104C101.794 115.679 99.0348 105.84 93.5176 99.5869C88.0003 93.1503 80.736 89.9316 71.7246 89.9316ZM382.094 89.9316C376.209 89.9316 370.967 91.3117 366.369 94.0703C361.956 96.8289 358.461 101.15 355.887 107.035C353.496 112.736 352.3 120.093 352.3 129.104C352.3 142.53 355.059 152.553 360.576 159.174C366.093 165.611 373.266 168.829 382.094 168.829C388.163 168.829 393.404 167.358 397.817 164.415C402.231 161.472 405.726 157.15 408.301 151.449C410.875 145.564 412.162 138.116 412.162 129.104C412.162 115.679 409.404 105.84 403.887 99.5869C398.37 93.1502 391.105 89.9317 382.094 89.9316ZM545.502 89.9316C539.617 89.9316 534.375 91.3117 529.777 94.0703C525.364 96.8289 521.87 101.15 519.295 107.035C516.72 112.736 515.433 120.093 515.433 129.104C515.433 142.53 518.192 152.553 523.709 159.174C529.226 165.611 536.49 168.829 545.502 168.829C551.387 168.829 556.536 167.358 560.95 164.415C565.548 161.472 569.042 157.15 571.433 151.449C574.007 145.564 575.295 138.116 575.295 129.104C575.295 115.679 572.537 105.84 567.02 99.5869C561.502 93.1501 554.33 89.9317 545.502 89.9316ZM692.011 90.252C688.021 90.8059 684.367 92.079 681.048 94.0703C676.634 96.8289 673.14 101.15 670.565 107.035C668.175 112.736 666.98 120.093 666.979 129.104C666.979 142.53 669.738 152.553 675.255 159.174C680.772 165.611 687.945 168.829 696.772 168.829C702.841 168.829 708.083 167.358 712.497 164.415C716.911 161.472 720.405 157.15 722.979 151.449C725.554 145.564 726.842 138.116 726.842 129.104C726.842 127.331 726.792 125.621 726.695 123.973C722.706 127.87 717.255 129.82 710.342 129.82C702.986 129.82 697.1 127.613 692.687 123.199C688.457 118.785 686.342 113.084 686.342 106.096C686.342 99.6642 688.232 94.3834 692.011 90.252ZM841.733 90.5342C838.396 91.185 835.305 92.3637 832.461 94.0703C828.047 96.8289 824.553 101.15 821.979 107.035C819.588 112.736 818.392 120.093 818.392 129.104C818.392 142.53 821.151 152.553 826.668 159.174C832.185 165.611 839.358 168.829 848.186 168.829C854.254 168.829 859.495 167.357 863.909 164.415C868.323 161.472 871.818 157.15 874.393 151.449C876.967 145.564 878.254 138.116 878.254 129.104C878.254 126.817 878.172 124.635 878.012 122.556C877.819 122.773 877.623 122.988 877.421 123.199C873.375 127.613 867.674 129.82 860.317 129.82C852.961 129.82 847.076 127.613 842.662 123.199C838.432 118.785 836.317 113.084 836.317 106.096C836.317 99.8095 838.124 94.623 841.733 90.5342Z" fill="#24020B"/>
</svg>
